<?xml version="1.0" encoding="UTF-8" standalone="no"?>
<!-- Created with Inkscape (http://www.inkscape.org/) -->

<svg
   xmlns:dc="http://purl.org/dc/elements/1.1/"
   xmlns:cc="http://creativecommons.org/ns#"
   xmlns:rdf="http://www.w3.org/1999/02/22-rdf-syntax-ns#"
   xmlns:svg="http://www.w3.org/2000/svg"
   xmlns="http://www.w3.org/2000/svg"
   xmlns:sodipodi="http://sodipodi.sourceforge.net/DTD/sodipodi-0.dtd"
   xmlns:inkscape="http://www.inkscape.org/namespaces/inkscape"
   id="svg2"
   version="1.1"
   inkscape:version="0.91 r13725"
   width="244"
   height="250"
   viewBox="0 0 244 250"
   sodipodi:docname="nurunner-logo.svg">
  <metadata
     id="metadata8">
    <rdf:RDF>
      <cc:Work
         rdf:about="">
        <dc:format>image/svg+xml</dc:format>
        <dc:type
           rdf:resource="http://purl.org/dc/dcmitype/StillImage" />
        <dc:title />
      </cc:Work>
    </rdf:RDF>
  </metadata>
  <defs
     id="defs6" />
  <sodipodi:namedview
     pagecolor="#ffffff"
     bordercolor="#666666"
     borderopacity="1"
     objecttolerance="10"
     gridtolerance="10"
     guidetolerance="10"
     inkscape:pageopacity="0"
     inkscape:pageshadow="2"
     inkscape:window-width="1920"
     inkscape:window-height="1007"
     id="namedview4"
     showgrid="false"
     inkscape:zoom="10"
     inkscape:cx="123.06184"
     inkscape:cy="241.67624"
     inkscape:window-x="0"
     inkscape:window-y="0"
     inkscape:window-maximized="1"
     inkscape:current-layer="svg2" />
  <path
     style="fill:#ffffff;fill-opacity:1"
     d="M 65.51132,184.18167 C 33.936,152.97546 8.286,126.93105 8.51132,126.30521 9.35174,123.97086 121.77218,10.908214 122.9719,11.190759 c 2.14649,0.505517 115.55161,113.038641 115.24222,114.356101 -0.43001,1.83109 -112.81014,115.44402 -114.15354,115.4058 -0.62678,-0.0178 -26.97395,-25.56478 -58.54926,-56.77099 z m 110.04667,-6.29561 c 27.69965,-28.10447 50.495,-51.6594 50.65634,-52.3443 C 226.52426,124.22606 125.11758,23.695618 122.9709,23.190442 121.76963,22.907747 21.35217,123.96447 20.5119,126.30169 c -0.45693,1.271 101.75416,102.59767 103.54609,102.65011 0.62534,0.0183 23.80034,-22.96128 51.5,-51.06574 z m -86.0428,-16.72092 c -18.37319,-18.00989 -33.22319,-33.24994 -33,-33.86677 0.65396,-1.80735 65.01825,-67.313287 66.14014,-67.313287 1.48134,0 67.76566,65.003687 67.76566,66.456407 0,0.67223 -1.4625,2.57613 -3.25,4.23088 -1.7875,1.65476 -16.4685,16.57706 -32.62444,33.16068 -16.15595,16.58362 -29.88095,30.13523 -30.5,30.11469 -0.61906,-0.0205 -16.15817,-14.77271 -34.53136,-32.7826 z M 153.21023,96.66815 123.02775,66.851222 92.98087,96.94618 l -30.04688,30.09497 30.33952,30.22196 30.33954,30.22197 29.88983,-30.5 29.88984,-30.5 -30.18249,-29.81693 z m -54.09637,54.71977 c -13.09392,-12.95804 -23.66892,-23.91765 -23.5,-24.35468 0.64079,-1.65787 46.29236,-48.04816 47.28304,-48.04816 0.57185,0 11.83268,10.8 25.02409,24 l 23.98437,24 -23.98437,24 c -13.19141,13.2 -24.21289,23.99166 -24.49219,23.98146 -0.27929,-0.0102 -11.22102,-10.62057 -24.31494,-23.57862 z"
     id="path4140"
     inkscape:connector-curvature="0" />
  <path
     style="fill:#076dd5;fill-opacity:1;stroke-width:0.2;stroke-miterlimit:4;stroke-dasharray:none"
     d="m 66.09452,173.89 c -1.8969,-1.8975 -3.40391,-3.45 -3.34891,-3.45 0.055,0 1.65201,1.5525 3.54891,3.45 1.8969,1.8975 3.40391,3.45 3.34891,3.45 -0.055,0 -1.65201,-1.5525 -3.54891,-3.45 z"
     id="path4160"
     inkscape:connector-curvature="0" />
  <path
     style="fill:#076dd5;fill-opacity:1;stroke-width:0.2;stroke-miterlimit:4;stroke-dasharray:none"
     d=""
     id="path4208"
     inkscape:connector-curvature="0" />
  <path
     style="fill:#076dd5;fill-opacity:1;stroke-width:0.2;stroke-miterlimit:4;stroke-dasharray:none"
     d=""
     id="path4214"
     inkscape:connector-curvature="0" />
  <path
     style="fill:#076dd5;fill-opacity:1;stroke-width:0.2;stroke-miterlimit:4;stroke-dasharray:none"
     d=""
     id="path4216"
     inkscape:connector-curvature="0" />
  <path
     style="fill:#076dd5;fill-opacity:1;stroke-width:0.2;stroke-miterlimit:4;stroke-dasharray:none"
     d=""
     id="path4218"
     inkscape:connector-curvature="0" />
  <path
     style="fill:#076dd5;fill-opacity:1;stroke-width:0.2;stroke-miterlimit:4;stroke-dasharray:none"
     d="m 105.42153,25.075902 c 0,-0.0275 0.0225,-0.06391 0.05,-0.0809 0.0275,-0.017 0.05,-0.0084 0.05,0.0191 0,0.0275 -0.0225,0.06391 -0.05,0.0809 -0.0275,0.017 -0.05,0.0084 -0.05,-0.0191 z"
     id="path4232"
     inkscape:connector-curvature="0" />
  <path
     style="fill:#076dd5;fill-opacity:1;stroke-width:0.2;stroke-miterlimit:4;stroke-dasharray:none"
     d=""
     id="path4248"
     inkscape:connector-curvature="0" />
  <path
     style="fill:#076dd5;fill-opacity:1;stroke-width:0.2;stroke-miterlimit:4;stroke-dasharray:none"
     d=""
     id="path4262"
     inkscape:connector-curvature="0" />
  <path
     style="fill:#076dd5;fill-opacity:1;stroke-width:0.2;stroke-miterlimit:4;stroke-dasharray:none"
     d=""
     id="path4302"
     inkscape:connector-curvature="0" />
  <path
     style="fill:#076dd5;fill-opacity:1;stroke-width:0.2;stroke-miterlimit:4;stroke-dasharray:none"
     d="m 112.0119,230.64605 c -0.12089,-0.12318 -0.20859,-0.23516 -0.1949,-0.24885 0.0137,-0.0137 0.1352,0.0871 0.27,0.22395 0.13481,0.13687 0.22252,0.24885 0.1949,0.24885 -0.0276,0 -0.14912,-0.10078 -0.27,-0.22395 z"
     id="path4306"
     inkscape:connector-curvature="0" />
</svg>
